<svg width="1008" height="1180" viewBox="0 0 1008 1180" fill="none" xmlns="http://www.w3.org/2000/svg">
<path d="M904.687 198.9L705.802 0.0149994H697.762V0H96.866C43.453 0 0 43.453 0 96.865V1082.9C0 1136.31 43.453 1179.77 96.866 1179.77H504.814V1141.02H96.866C64.817 1141.02 38.746 1114.95 38.746 1082.9V96.865C38.746 64.816 64.817 38.746 96.866 38.746H438.453V38.761H678.389V129.425C678.389 182.837 721.843 226.291 775.255 226.291H865.934V640.875H904.681V402.586H904.688L904.687 198.9ZM717.135 129.425V66.163L838.542 187.544H775.254C743.21 187.544 717.135 161.47 717.135 129.425Z" fill="#FF5859"/>
<path d="M222.451 617.627H114.12V656.373H222.451V617.627Z" fill="#FF5859"/>
<path d="M527.899 617.627H245.21V656.373H527.899V617.627Z" fill="#FF5859"/>
<path d="M222.451 414.858H114.12V453.604H222.451V414.858Z" fill="#FF5859"/>
<path d="M462.03 414.858H245.21V453.604H462.03V414.858Z" fill="#FF5859"/>
<path d="M701.61 414.858H484.79V453.604H701.61V414.858Z" fill="#FF5859"/>
<path d="M222.451 313.47H114.12V352.216H222.451V313.47Z" fill="#FF5859"/>
<path d="M330.293 313.47H245.21V352.216H330.293V313.47Z" fill="#FF5859"/>
<path d="M634.45 313.47H375.01V352.216H634.45V313.47Z" fill="#FF5859"/>
<path d="M353.541 789.078H245.21V827.824H353.541V789.078Z" fill="#FF5859"/>
<path d="M222.451 516.24H114.12V554.987H222.451V516.24Z" fill="#FF5859"/>
<path d="M353.541 516.24H245.21V554.987H353.541V516.24Z" fill="#FF5859"/>
<path d="M788.789 516.24H397.611V554.987H788.789V516.24Z" fill="#FF5859"/>
<path d="M135.517 835.74C129.667 835.74 123.885 833.107 120.076 828.082C113.605 819.561 115.266 807.408 123.788 800.937L171.233 764.916L123.788 728.887C115.267 722.416 113.605 710.262 120.076 701.741C126.546 693.22 138.696 691.563 147.221 698.026L214.986 749.485C219.81 753.149 222.64 758.854 222.64 764.917C222.64 770.97 219.81 776.685 214.986 780.347L147.221 831.8C143.716 834.455 139.6 835.74 135.517 835.74Z" fill="#FF5859"/>
<path d="M1007.78 893.309L951.83 966.579L896.462 894.005L895.921 893.31H933.464C932.923 889.201 932.265 885.136 931.488 881.103C913.277 786.175 829.704 714.183 729.543 714.183C641.395 714.183 566.032 769.941 536.817 848.017L509.891 812.714C549.682 731.505 633.179 675.437 729.542 675.437C851.127 675.437 952.257 764.675 970.855 881.103C971.475 885.136 972.054 889.201 972.482 893.31L1007.78 893.309Z" fill="#FF5859"/>
<path d="M451.307 946.387L507.254 873.125L562.622 945.691L563.167 946.386H525.62C526.161 950.495 526.823 954.568 527.596 958.593C545.807 1053.52 629.384 1125.51 729.542 1125.51C817.689 1125.51 893.052 1069.76 922.267 991.687L949.197 1026.98C909.402 1108.2 825.905 1164.26 729.543 1164.26C607.957 1164.26 506.831 1075.03 488.233 958.593C487.613 954.568 487.03 950.495 486.602 946.386H451.307V946.387Z" fill="#FF5859"/>
</svg>
